<!DOCTYPE svg PUBLIC "-//W3C//DTD SVG 20010904//EN" "http://www.w3.org/TR/2001/REC-SVG-20010904/DTD/svg10.dtd">
<svg version="1.0" xmlns="http://www.w3.org/2000/svg" width="300px" height="300px" viewBox="0 0 3000 3000" preserveAspectRatio="xMidYMid meet">
<g id="layer1" fill="#333333" stroke="none">
 <path d="M1475 2574 c-17 -17 -95 -130 -95 -138 0 -2 54 -4 120 -4 66 0 120 2 120 4 0 8 -78 121 -95 138 -9 9 -20 16 -25 16 -5 0 -16 -7 -25 -16z"/>
 <path d="M1320 2385 c-36 -7 -97 -25 -136 -40 l-72 -26 -12 -62 c-16 -86 -54 -151 -130 -227 -76 -76 -141 -114 -227 -130 l-62 -12 -26 -72 c-74 -198 -74 -434 0 -633 26 -69 29 -73 64 -79 113 -18 214 -80 292 -177 51 -63 75 -114 90 -189 l11 -57 72 -26 c198 -74 434 -74 633 0 70 26 72 27 78 68 30 182 200 352 382 382 41 6 42 8 68 78 74 199 74 435 0 633 l-26 72 -62 12 c-74 14 -115 34 -184 89 -97 78 -166 191 -176 291 -4 33 -8 36 -78 63 -40 16 -106 35 -147 43 -90 17 -264 17 -352 -1z m265 -642 c96 -32 175 -143 175 -243 0 -63 -30 -131 -80 -180 -104 -105 -256 -105 -360 0 -105 105 -105 256 0 361 74 74 167 96 265 62z"/>
 <path d="M1429 1714 c-84 -25 -159 -127 -159 -214 0 -50 31 -119 72 -160 127 -127 339 -62 379 115 25 110 -45 228 -154 260 -61 18 -78 18 -138 -1z"/>
 <path d="M620 2353 c0 -31 94 -411 104 -420 3 -4 25 -1 48 6 124 37 270 190 294 308 7 36 34 26 -232 93 -197 49 -214 50 -214 13z"/>
 <path d="M2127 2330 c-104 -26 -191 -51 -194 -54 -4 -3 -1 -25 6 -48 38 -127 208 -287 312 -292 l31 -1 53 210 c28 116 50 216 48 223 -8 20 -59 13 -256 -38z"/>
 <path d="M488 1572 c-69 -48 -81 -62 -73 -84 5 -12 137 -108 149 -108 3 0 6 54 6 120 0 66 -3 120 -7 120 -5 -1 -38 -22 -75 -48z"/>
 <path d="M2430 1500 c0 -66 3 -120 6 -120 12 0 144 96 149 108 2 6 2 18 0 25 -5 11 -137 107 -149 107 -3 0 -6 -54 -6 -120z"/>
 <path d="M711 1034 c-45 -170 -91 -366 -91 -387 0 -14 6 -27 13 -30 6 -2 106 20 222 48 l210 53 -1 31 c-3 53 -45 124 -118 197 -70 69 -131 108 -193 120 -30 6 -32 4 -42 -32z"/>
 <path d="M2215 1058 c-124 -45 -274 -212 -279 -310 l-1 -30 210 -53 c116 -28 215 -50 222 -48 6 3 13 10 16 16 2 7 -19 106 -48 222 -57 228 -56 226 -120 203z"/>
 <path d="M1380 563 c0 -11 96 -143 108 -148 6 -2 18 -2 25 0 11 5 107 137 107 148 0 3 -54 5 -120 5 -66 0 -120 -2 -120 -5z"/>
 </g>

</svg>